<?xml version="1.0" encoding="UTF-8" standalone="no"?>
<svg xmlns="http://www.w3.org/2000/svg"
     version="1.2"
     baseProfile="tiny"
     viewBox="0 0 100 100"
     width="100"
     height="100">
  <rect x="0" y="0" width="100" height="100" fill="#000000"/>
  <rect x="10" y="10" width="80" height="80" rx="5" ry="5" fill="none" stroke="#FFFFFF" stroke-width="4"/>
  <path d="M28,70 L28,30 L44,30 Q54,30 58,36 Q62,42 62,50 Q62,58 58,64 Q54,70 44,70 Z
           M34,64 L44,64 Q50,64 52.5,60 Q55,56 55,50 Q55,44 52.5,40 Q50,36 44,36 L34,36 Z" fill="#FFFFFF"/>
  <rect x="68" y="30" width="8" height="40" fill="#FFFFFF"/>
</svg>
